<svg version="1.1" xmlns="http://www.w3.org/2000/svg" xmlns:xlink="http://www.w3.org/1999/xlink" preserveAspectRatio="xMidYMid meet" viewBox="285 237 470 63"><g data-item-type="image" data-item="Image" data-logo-item="" id="logo__item--logo_0" class="logo__item">
    <g class="logo__item__inner" transform="translate(279.38542308586347 200) scale(1.389629042984068 1.389629042984068) rotate(0 0 0)">
        
<g>
	<path fill-rule="evenodd" clip-rule="evenodd" fill="#BBBDBF" d="M91.11,62.398c-3.292-0.105-6.675-0.063-10.037,0.348   c-5.624,0.686-11.204,1.416-16.816,2.116c-0.664,0.081-1.51,0.12-2.158,0.093c-4.031-0.182-7.99-0.426-12.067-0.563   c-1.856-0.063-3.938,0.068-5.912,0.112c-0.019,0.039-0.037,0.078-0.054,0.115c4.128,0.318,7.88,0.801,11.56,1.386   c-0.343,0.073-0.479,0.107-0.639,0.13c-4.571,0.627-9.134,1.256-13.73,1.858c-0.6,0.078-1.511,0.061-2.074-0.005   c-3.181-0.359-6.411-0.708-9.403-1.148c-1.19-0.176-2.238-0.122-3.335-0.005c0.081,0.353,0.123,0.707,0.147,1.068   c1.043,0.384,2.098,0.773,3.225,1.185c-1.33-0.022-2.275-0.084-3.21-0.057c-0.005,0.243-0.013,0.482-0.02,0.723   c0.431,0.05,0.867,0.101,1.33,0.156c-0.073,0.013-0.147,0.024-0.223,0.04c1.317,0.068,2.613,0.254,3.626,0.379   c0.671,0.084,1.315,0.179,1.957,0.277c0.188-0.044,0.357-0.088,0.475-0.138c0.521-0.218,1.097-0.323,1.949-0.403   c7.932-0.718,15.854-1.45,23.781-2.18c0.416-0.037,0.839-0.066,1.429-0.112c-0.063,0.788-0.11,1.527-0.165,2.264l0.337,0.015   c1.314-0.406,3.033-0.724,3.73-1.272c0.649-0.515,1.582-1.017,2.296-1.528c0.392-0.283,1.02-0.457,2.028-0.602   c5.003-0.711,10.022-1.413,14.963-2.165c2.561-0.392,5.001-0.859,7.421-1.322c0.61-0.12,0.938-0.357,1.392-0.538   C92.314,62.546,91.771,62.419,91.11,62.398z" data-part-id="logo__item--logo_0__0"></path>
	<g>
		<radialGradient id="SVGID_1_" cx="69.0762" cy="17.813" r="60.4934" gradientUnits="userSpaceOnUse">
			<stop offset="0" style="stop-color:#26C2F2"></stop>
			<stop offset="0.1561" style="stop-color:#1DB7E9"></stop>
			<stop offset="0.4298" style="stop-color:#069AD1"></stop>
			<stop offset="0.4848" style="stop-color:#0193CB"></stop>
			<stop offset="1" style="stop-color:#0D497A"></stop>
		</radialGradient>
		<polygon fill="url(#SVGID_1_)" points="69.971,29.529 32.86,54.837 48.831,65.807" data-part-id="logo__item--logo_0__1"></polygon>
		<radialGradient id="SVGID_2_" cx="70.3252" cy="21.6558" r="62.7424" gradientUnits="userSpaceOnUse">
			<stop offset="0" style="stop-color:#929497"></stop>
			<stop offset="0.6727" style="stop-color:#404041"></stop>
			<stop offset="1" style="stop-color:#231F20"></stop>
		</radialGradient>
		<polygon fill="url(#SVGID_2_)" points="48.268,41.399 28.71,55.798 34.673,60.377 26.367,69.534 21.043,52.285" data-part-id="logo__item--logo_0__2"></polygon>
		<radialGradient id="SVGID_3_" cx="70.8057" cy="17.6914" r="65.237" gradientUnits="userSpaceOnUse">
			<stop offset="0" style="stop-color:#26C2F2"></stop>
			<stop offset="0.1561" style="stop-color:#1DB7E9"></stop>
			<stop offset="0.4298" style="stop-color:#069AD1"></stop>
			<stop offset="0.4848" style="stop-color:#0193CB"></stop>
			<stop offset="1" style="stop-color:#0D497A"></stop>
		</radialGradient>
		<polygon fill="url(#SVGID_3_)" points="68.405,29.393 18.487,51.644 6.559,48.024" data-part-id="logo__item--logo_0__3"></polygon>
	</g>
	<radialGradient id="SVGID_4_" cx="70.7197" cy="21.874" r="62.7415" gradientUnits="userSpaceOnUse">
		<stop offset="0" style="stop-color:#929497"></stop>
		<stop offset="0.6727" style="stop-color:#404041"></stop>
		<stop offset="1" style="stop-color:#231F20"></stop>
	</radialGradient>
	<polygon fill="url(#SVGID_4_)" points="42.278,41.905 45.667,45.424 51.779,39.643" data-part-id="logo__item--logo_0__4"></polygon>
</g>

    </g>
</g><g data-item-type="text" data-item="Business" id="logo__item--business" class="logo__item">
                <g class="logo__item__inner" transform="translate(402.1000061035156 297.5161685730208) scale(2.505902766502695 2.505902766502695) rotate(0 0 0)">
                    <text data-part-id="logo__item--business" dy="0" dominant-baseline="auto" alignment-baseline="auto" font-family="Montserrat" font-size="32px" fill="#BBBDBF" letter-spacing="0" font-weight="normal" font-style="normal" data-font-family="Montserrat" data-font-weight="normal" data-font-style="normal" data-ttf-url="/builder_assets/fontsttf/font-montserrat-bold-normal.ttf" data-font-filename="montserrat-normal-normal">MANLED</text>
                </g>
            </g><g data-item-type="text" id="logo__item--tagline_1" data-item="Tagline" class="logo__item">
    <g class="logo__item__inner" transform="translate(486.5 279) scale(1 1) rotate(0 0 0)">
        <text dy="0" dominant-baseline="auto" alignment-baseline="auto" font-family="Open Sans" font-size="18px" fill="#000000" letter-spacing="1" data-font-family="Open Sans" data-font-weight="normal" data-font-style="normal" font-weight="normal" font-style="normal" data-ttf-url="/builder_assets/fontsttf/font-open-sans-normal-normal.ttf" data-part-id="logo__item--tagline_1__0" data-font-filename="open-sans-normal-normal"></text>
    </g>
</g></svg>